<?xml version="1.0" encoding="utf-8"?><svg xmlns="http://www.w3.org/2000/svg" xmlns:xlink="http://www.w3.org/1999/xlink"><symbol viewBox="0 0 42.1 47" id="icon-android" xmlns="http://www.w3.org/2000/svg"><path fill="#A4C639" d="M34.1 14H7.9v19.1c0 1.9 1.5 3.5 3.3 3.6v7.4c0 1.6 1.3 2.9 2.9 2.9 1.6 0 2.9-1.3 2.9-2.9v-7.4h8.1v7.4c0 1.6 1.3 2.9 2.9 2.9 1.6 0 2.9-1.3 2.9-2.9v-7.4c1.9-.1 3.3-1.7 3.3-3.6V14.3c0-.1 0-.2-.1-.3zM2.9 15.7c1.6 0 2.9 1.3 2.9 2.9V31c0 1.6-1.3 2.9-2.9 2.9C1.3 33.9 0 32.6 0 31V18.6c0-1.6 1.3-2.9 2.9-2.9zm36.3 0c1.6 0 2.9 1.3 2.9 2.9V31c0 1.6-1.3 2.9-2.9 2.9-1.6 0-2.9-1.3-2.9-2.9V18.6c0-1.6 1.3-2.9 2.9-2.9zM8 12h26c0-2.8-1.2-5.3-3.2-7.3L33.2.5c.1-.1 0-.3-.1-.4-.1-.1-.3 0-.4.1l-2.4 4.1C28.2 2.4 24.1.9 20.9.9c-3 0-7.3 1.5-9.4 3.4L9.3.2C9.2 0 9 0 8.9 0c-.2.1-.2.3-.1.5l2.4 4.2C9.3 6.6 8.1 9.2 8 12zm17.3-5.2c0-.8.7-1.5 1.5-1.5s1.5.6 1.5 1.5c0 .8-.7 1.5-1.5 1.5s-1.5-.7-1.5-1.5zm-11.1 0c0-.8.7-1.5 1.5-1.5s1.5.6 1.5 1.5c0 .8-.7 1.5-1.5 1.5s-1.5-.7-1.5-1.5z"/></symbol><symbol viewBox="0 0 46.2 56.8" id="icon-apple" xmlns="http://www.w3.org/2000/svg"><path fill="#FFF" d="M38.6 30.1c.1 8.6 7.5 11.4 7.6 11.5-.1.2-1.2 4.1-3.9 8.1-2.4 3.5-4.8 6.9-8.7 7-3.8.1-5-2.3-9.4-2.3-4.3 0-5.7 2.2-9.3 2.3-3.7.1-6.6-3.7-9-7.2-4.9-7-8.6-19.9-3.6-28.6 2.5-4.3 6.9-7 11.7-7.1 3.7-.1 7.1 2.5 9.4 2.5 2.2 0 6.4-3 10.9-2.6 1.9.1 7 .7 10.4 5.6-.2.2-6.2 3.7-6.1 10.8m-7.1-21c2-2.4 3.3-5.7 3-9.1-2.9.1-6.3 1.9-8.4 4.3-1.8 2.1-3.4 5.5-3 8.8 3.1.2 6.4-1.6 8.4-4"/></symbol><symbol viewBox="0 0 8.7 18.9" id="icon-facebook" xmlns="http://www.w3.org/2000/svg"><path d="M6.3 3.4h2.4V0H5.8C2.7.2 1.5 2.4 1.9 6.1H0v3.5h2v9.3h3.8V9.6h2.9V6.1H5.8c0-1 0-2.4.5-2.7z"/></symbol><symbol viewBox="0 0 36 36" id="icon-map-maker" xmlns="http://www.w3.org/2000/svg"><path fill="#FFF" d="M18 0c9.9 0 18 8.1 18 18s-8.1 18-18 18S0 27.9 0 18 8.1 0 18 0z"/><path fill="#D22856" d="M18 10.1c4.3 0 7.9 3.5 7.9 7.9 0 4.3-3.5 7.9-7.9 7.9-4.3 0-7.9-3.5-7.9-7.9s3.5-7.9 7.9-7.9z"/></symbol><symbol viewBox="0 0 43.9 42" id="icon-microsoft" xmlns="http://www.w3.org/2000/svg"><path fill="#F05423" d="M20.9 20H0V0h20.9v20z"/><path fill="#84C441" d="M43.9 20H23V0h20.9v20z"/><path fill="#2DABE2" d="M20.9 42H0V22h20.9v20z"/><path fill="#F9BC15" d="M43.9 42H23V22h20.9v20z"/></symbol><symbol viewBox="0 0 49.9 24" id="icon-mobile-menu" xmlns="http://www.w3.org/2000/svg"><path fill="#FFF" d="M1.1 0C.5 0 0 .4 0 1v2c0 .6.5 1 1.1 1h47.7c.6 0 1.1-.4 1.1-1V1c0-.6-.5-1-1.1-1H1.1zm0 10c-.6 0-1.1.4-1.1 1v2c0 .6.5 1 1.1 1h47.7c.6 0 1.1-.4 1.1-1v-2c0-.6-.5-1-1.1-1H1.1zm0 10c-.6 0-1.1.4-1.1 1v2c0 .6.5 1 1.1 1h47.7c.6 0 1.1-.4 1.1-1v-2c0-.6-.5-1-1.1-1H1.1z"/><path fill="#FFF" d="M1.1 0C.5 0 0 .4 0 1v2c0 .6.5 1 1.1 1h47.7c.6 0 1.1-.4 1.1-1V1c0-.6-.5-1-1.1-1H1.1zm0 10c-.6 0-1.1.4-1.1 1v2c0 .6.5 1 1.1 1h47.7c.6 0 1.1-.4 1.1-1v-2c0-.6-.5-1-1.1-1H1.1zm0 10c-.6 0-1.1.4-1.1 1v2c0 .6.5 1 1.1 1h47.7c.6 0 1.1-.4 1.1-1v-2c0-.6-.5-1-1.1-1H1.1z"/></symbol><symbol viewBox="0 0 26.8 26.8" id="icon-option-no" xmlns="http://www.w3.org/2000/svg"><path fill="#F36331" d="M15.5 13.4L26.3 2.6c.6-.6.6-1.5 0-2.1-.6-.6-1.5-.6-2.1 0L13.4 11.3 2.6.4C2-.1 1-.1.4.4-.1 1-.1 2 .4 2.6l10.8 10.8L.4 24.2c-.6.6-.6 1.5 0 2.1.3.3.7.4 1.1.4.4 0 .8-.1 1.1-.4l10.8-10.8 10.8 10.8c.3.3.7.4 1.1.4.4 0 .8-.1 1.1-.4.6-.6.6-1.5 0-2.1L15.5 13.4z"/></symbol><symbol viewBox="0 0 30.4 21.7" id="icon-option-yes" xmlns="http://www.w3.org/2000/svg"><path fill="#51CC58" d="M29.9.4c-.6-.6-1.5-.6-2.1 0L10.2 18.1l-7.6-7.6C2 9.9 1 9.9.4 10.4c-.6.6-.6 1.5 0 2.1l8.7 8.7c.3.3.7.4 1.1.4.4 0 .8-.1 1.1-.4L29.9 2.6c.6-.6.6-1.6 0-2.2z"/></symbol><symbol viewBox="0 0 78.7 63.8" id="icon-quotes" xmlns="http://www.w3.org/2000/svg"><path fill="#efefef" d="M35 7.1L30.7 0C28.3 1.5 0 12.2 0 39.6c0 7.2.3 24.2 18.9 24.2 11.2 0 13.9-10.3 13.9-13.6 0-22-21.4-14.2-21.4-14.2C11.5 18 31.3 9.2 35 7.1zm43.7 0L74.4 0C72 1.5 43.7 12.2 43.7 39.6c0 7.2.3 24.2 18.9 24.2 11.2 0 13.9-10.3 13.9-13.6 0-22-21.4-14.2-21.4-14.2C55.2 18 75 9.2 78.7 7.1z"/></symbol><symbol viewBox="0 0 17.5 14.7" id="icon-twitter" xmlns="http://www.w3.org/2000/svg"><path d="M11.3.2C13-.3 14.4.4 15 1.3c.7-.2 1.4-.5 2.1-.7 0 .8-.5 1.5-.9 1.7.7.2 1.3-.5 1.3-.5-.2 1-1 1.7-1.6 2-.2 6.6-3.3 11-10.4 10.8H5c-.4 0-4.3-.4-5-1.8 2.3.2 4-.4 4.8-1.1-1-.3-2.8-.5-3.1-2.9.4.1.6.2 1.3.1C1.8 8.1.4 7.4.5 5.2c.3.3 1.1.5 1.4.5-.7-.2-2-3.3-.9-4.8 1.9 1.8 3.8 3.5 7.4 3.7C8.5 2.3 9.5.8 11.3.2z"/></symbol><symbol viewBox="0 0 14.6 14" id="icon-youtube" xmlns="http://www.w3.org/2000/svg"><path d="M1.8 13.8c-1 .5-1.8 0-1.8-1.1V1.3C0 .2.8-.3 1.8.2l12.1 5.9c1 .5 1 1.3 0 1.7l-12.1 6z"/></symbol><symbol viewBox="0 0 298 345.1" id="img-timer" xmlns="http://www.w3.org/2000/svg"><path d="M264.6 102.1l5.4-5.4c7.7-7.7 9.1-18.9 3.1-24.9s-17.2-4.6-24.9 3.1l-5.4 5.4c-21-17-46.6-28.4-74.7-32v-9.6h7.7c10.9 0 19.8-8.7 19.8-19.4S186.6 0 175.7 0h-53.3c-10.9 0-19.8 8.7-19.8 19.4s8.9 19.4 19.8 19.4h7.7v9.6C56.7 57.6 0 120.2 0 196.1c0 82.3 66.7 149 149 149s149-66.7 149-149c0-35.7-12.5-68.4-33.4-94zM149 306.3c-60.8 0-110.2-49.3-110.2-110.2 0-60.8 49.3-110.2 110.2-110.2 60.8 0 110.2 49.3 110.2 110.2 0 60.8-49.4 110.2-110.2 110.2z"/><path fill="currentColor" d="M149 69.6c-69.9 0-126.5 56.6-126.5 126.5S79.1 322.6 149 322.6 275.5 266 275.5 196.1 218.9 69.6 149 69.6zm0 237.2c-60.8 0-110.2-49.3-110.2-110.2 0-60.8 49.3-110.2 110.2-110.2 60.8 0 110.2 49.3 110.2 110.2 0 60.9-49.4 110.2-110.2 110.2z"/></symbol><symbol viewBox="0 0 74.4 22.9" id="logo-site-320" xmlns="http://www.w3.org/2000/svg"><path d="M0 1.4C0 .7.6.1 1.3.1h7.2c5.1 0 8.4 2.7 8.4 7.1v.1c0 4.9-4.1 7.4-8.9 7.4H2.5v6.8c0 .7-.6 1.3-1.3 1.3-.7 0-1.3-.6-1.3-1.3V1.4zm8.1 11c3.7 0 6.2-2 6.2-5 0-3.2-2.4-4.9-6.1-4.9H2.5v9.9h5.6zM21.7 1.3c0-.7.6-1.3 1.3-1.3.7 0 1.3.6 1.3 1.3v20.3c0 .7-.6 1.3-1.3 1.3-.7 0-1.3-.6-1.3-1.3V1.3zm9.2 0c0-.7.6-1.3 1.3-1.3h.4c.6 0 .9.3 1.3.7l13.7 17.4v-17C47.5.6 48 0 48.7 0c.7 0 1.2.6 1.2 1.3v20.3c0 .7-.5 1.2-1.2 1.2h-.1c-.5 0-.9-.3-1.3-.8l-14-17.9v17.5c0 .7-.5 1.3-1.3 1.3-.7 0-1.2-.6-1.2-1.3V1.3zm25.4 0c0-.7.6-1.3 1.3-1.3.7 0 1.3.6 1.3 1.3v12.3L71.7.5c.3-.3.6-.5 1-.5.7 0 1.2.6 1.2 1.3 0 .4-.2.6-.4.9l-8 7.9 8.6 10.6c.2.3.4.5.4.9 0 .7-.6 1.3-1.3 1.3-.5 0-.8-.3-1-.6l-8.4-10.5-4.9 4.9v4.9c0 .7-.6 1.3-1.3 1.3-.7 0-1.3-.6-1.3-1.3V1.3z" fill="#fff"/></symbol><symbol viewBox="0 0 146.3 40.4" id="logo-site-660" xmlns="http://www.w3.org/2000/svg"><path d="M71.9 18.7c0-.7.6-1.3 1.3-1.3h7.2c5.1 0 8.4 2.7 8.4 7.1v.1c0 4.9-4.1 7.4-8.9 7.4h-5.5v6.8c0 .7-.6 1.3-1.3 1.3-.7 0-1.3-.6-1.3-1.3l.1-20.1zM80 29.6c3.7 0 6.2-2 6.2-5v-.1c0-3.2-2.4-4.9-6.1-4.9h-5.7v9.9l5.6.1zm13.6-11.1c0-.7.6-1.3 1.3-1.3.7 0 1.3.6 1.3 1.3v20.3c0 .7-.6 1.3-1.3 1.3-.7 0-1.3-.6-1.3-1.3V18.5zm9.1 0c0-.7.6-1.3 1.3-1.3h.4c.6 0 .9.3 1.3.7l13.7 17.4v-17c0-.7.5-1.3 1.3-1.3.7 0 1.2.6 1.2 1.3v20.3c0 .7-.5 1.2-1.2 1.2h-.1c-.5 0-.9-.3-1.3-.8l-14-17.9v17.4c0 .7-.5 1.3-1.3 1.3-.7 0-1.2-.6-1.2-1.3l-.1-20zm25.5 0c0-.7.6-1.3 1.3-1.3.7 0 1.3.6 1.3 1.3v12.3l12.8-13.2c.3-.3.6-.5 1-.5.7 0 1.2.6 1.2 1.3 0 .4-.2.6-.4.9l-8 7.9 8.6 10.6c.2.3.4.5.4.9 0 .7-.6 1.3-1.3 1.3-.5 0-.8-.3-1-.6L135.6 29l-4.9 4.9v4.9c0 .7-.6 1.3-1.3 1.3-.7 0-1.3-.6-1.3-1.3l.1-20.3z"/><path fill="currentColor" d="M60.5 28L55.3 6.6C54.9 4.3 52.7 0 46.7 0c-.8 0-1.5.7-1.5 1.5S45.9 3 46.7 3c4.9 0 5.6 3.7 5.6 4.1l4.8 19.7H55c-.7-5.9-5.8-10.5-11.9-10.5s-11.2 4.6-11.9 10.5h-1.8c-.7-5.9-5.8-10.5-11.9-10.5s-11.3 4.6-12 10.5H3.4L8.2 7.1C8.3 6.7 9 3 13.8 3c.8 0 1.5-.7 1.5-1.5S14.7 0 13.8 0c-6 0-8.2 4.3-8.6 6.7L0 28.1c-.3 1.1.5 1.8 1.4 1.8h4c.7 5.9 5.8 10.5 11.9 10.5s11.2-4.6 11.9-10.5H31c.7 5.9 5.8 10.5 11.9 10.5S54.3 35.8 55 29.8h4c.9 0 1.7-.7 1.5-1.8zm-34.2 1.8c-.7 4.3-4.4 7.5-8.9 7.5S9.2 34 8.5 29.8c-.1-.5-.1-1-.1-1.5s.1-1 .1-1.5c.7-4.3 4.4-7.5 8.9-7.5s8.2 3.3 8.9 7.5c.1.5.1 1 .1 1.5.1.6 0 1.1-.1 1.5zm25.7 0c-.7 4.3-4.4 7.5-8.9 7.5s-8.2-3.3-8.9-7.5c-.1-.5-.1-1-.1-1.5s.1-1 .1-1.5c.7-4.3 4.4-7.5 8.9-7.5s8.2 3.3 8.9 7.5c.1.5.1 1 .1 1.5 0 .6 0 1.1-.1 1.5z"/></symbol><symbol viewBox="0 0 146.3 40.4" id="logo-site-960" xmlns="http://www.w3.org/2000/svg"><path d="M71.9 18.7c0-.7.6-1.3 1.3-1.3h7.2c5.1 0 8.4 2.7 8.4 7.1v.1c0 4.9-4.1 7.4-8.9 7.4h-5.5v6.8c0 .7-.6 1.3-1.3 1.3-.7 0-1.3-.6-1.3-1.3l.1-20.1zM80 29.6c3.7 0 6.2-2 6.2-5v-.1c0-3.2-2.4-4.9-6.1-4.9h-5.7v9.9l5.6.1zm13.6-11.1c0-.7.6-1.3 1.3-1.3.7 0 1.3.6 1.3 1.3v20.3c0 .7-.6 1.3-1.3 1.3-.7 0-1.3-.6-1.3-1.3V18.5zm9.1 0c0-.7.6-1.3 1.3-1.3h.4c.6 0 .9.3 1.3.7l13.7 17.4v-17c0-.7.5-1.3 1.3-1.3.7 0 1.2.6 1.2 1.3v20.3c0 .7-.5 1.2-1.2 1.2h-.1c-.5 0-.9-.3-1.3-.8l-14-17.9v17.4c0 .7-.5 1.3-1.3 1.3-.7 0-1.2-.6-1.2-1.3l-.1-20zm25.5 0c0-.7.6-1.3 1.3-1.3.7 0 1.3.6 1.3 1.3v12.3l12.8-13.2c.3-.3.6-.5 1-.5.7 0 1.2.6 1.2 1.3 0 .4-.2.6-.4.9l-8 7.9 8.6 10.6c.2.3.4.5.4.9 0 .7-.6 1.3-1.3 1.3-.5 0-.8-.3-1-.6L135.6 29l-4.9 4.9v4.9c0 .7-.6 1.3-1.3 1.3-.7 0-1.3-.6-1.3-1.3l.1-20.3z"/><path fill="#D22856" d="M98.5 9.9c-2 0-3.6-1.6-3.6-3.6 0 2-1.6 3.6-3.6 3.6 2 0 3.6 1.6 3.6 3.6 0-2 1.6-3.6 3.6-3.6z"/><g fill="currentColor"><path d="M43.1 19.3h.7c-.4-.7-1.2-1.2-2.1-1.2-.9 0-1.6-.6-1.9-1.4-.7.2-1.4.5-2.1.8h.2c1.1 0 2 .9 2 2v.3c1-.3 2.1-.5 3.2-.5z"/><path d="M60.5 28L55.3 6.6C54.9 4.3 52.7 0 46.7 0c-.8 0-1.5.7-1.5 1.5S45.9 3 46.7 3c4.9 0 5.6 3.7 5.6 4.1l4.8 19.7H55c-.4-3.6-2.5-6.6-5.3-8.5-.9.4-1.5 1.3-1.5 2.3v.3c2 1.4 3.4 3.5 3.8 6 .1.5.1 1 .1 1.5s-.1 1-.1 1.5c-.7 4.3-4.4 7.5-8.9 7.5s-8.2-3.3-8.9-7.5c-.1-.5-.1-1-.1-1.5s.1-1 .1-1.5c.1-.9.4-1.7.8-2.5-1-.1-1.9-.9-1.9-2 0-.2-.1-.4-.2-.5-.9 1.5-1.6 3.1-1.8 5h-1.8c-.7-5.9-5.8-10.5-11.9-10.5S6.2 20.9 5.5 26.8H3.4L8.2 7.1C8.3 6.7 9 3 13.8 3c.8 0 1.5-.7 1.5-1.5S14.7 0 13.8 0c-6 0-8.2 4.3-8.6 6.7L0 28.1c-.3 1.1.5 1.8 1.4 1.8h4c.1.6.2 1.2.4 1.8.1-.1.2-.2.2-.4 0-1.1.9-2 2-2 .2 0 .3 0 .5.1 0-.3-.1-.7-.1-1 0-.5.1-1 .1-1.5.7-4.3 4.4-7.5 8.9-7.5s8.2 3.3 8.9 7.5c.1.5.1 1 .1 1.5s-.1 1-.1 1.5c-.7 4.3-4.4 7.5-8.9 7.5-2 0-3.9-.7-5.4-1.8-.4.3-.8.5-1.3.5-.4 0-.7.3-.7.7 0 .3-.1.6-.2.8 2.1 1.7 4.7 2.7 7.6 2.7 6.1 0 11.2-4.6 11.9-10.5h1.8c.7 5.9 5.8 10.5 11.9 10.5s11.3-4.5 12-10.5h4c.9 0 1.7-.7 1.5-1.8z"/></g><path fill="#D22856" d="M50.7 16.1c-2.5 0-4.5-2-4.5-4.5 0 2.5-2 4.5-4.5 4.5 2.5 0 4.5 2 4.5 4.5 0-2.5 2-4.5 4.5-4.5zM37.9 19.6c-1.5 0-2.7-1.2-2.7-2.7 0 1.5-1.2 2.7-2.7 2.7 1.5 0 2.7 1.2 2.7 2.7 0-1.4 1.2-2.7 2.7-2.7zM10.7 34.1c-1.5 0-2.7-1.2-2.7-2.8 0 1.5-1.2 2.8-2.7 2.8 1.5 0 2.7 1.2 2.7 2.7 0-1.5 1.2-2.7 2.7-2.7z"/></symbol></svg>